# xmcd CD database file
#
# Track frame offsets:
#	150
#	21079
#	37602
#	53829
#	72613
#	91991
#	103544
#	120467
#	135656
#	160188
#	171974
#	192543
#	207189
#
# Disc length: 2983 seconds
#
# Revision: 0
# Processed by: cddbd v1.5.2PL0 Copyright (c) Steve Scherf et al.
# Submitted via: CDex 1.51
#
DISCID=ad0ba50d
DTITLE=Dr. John - Mercernary
DYEAR=2006
DGENRE=Blues
TTITLE0=Dr. John - Blues in the Night
TTITLE1=Dr. John - You Must Have Been a Beautiful
TTITLE2=Dr. John - Personality
TTITLE3=Dr. John - Hit the Road to Dreamland
TTITLE4=Dr. John - I'm an Old Cow Hand
TTITLE5=Dr. John - Dream
TTITLE6=Dr. John - Lazy Bones
TTITLE7=Dr. John - That Old Black Magic
TTITLE8=Dr. John - Come Rain or Come Shine
TTITLE9=Dr. John - Moon River
TTITLE10=Dr. John - Tangerine
TTITLE11=Dr. John - I Ain't No Johnny Mercer
TTITLE12=Dr. John - Save the Bones for Henry Jones
EXTD=YEAR: 2006
EXTT0=
EXTT1=
EXTT2=
EXTT3=
EXTT4=
EXTT5=
EXTT6=
EXTT7=
EXTT8=
EXTT9=
EXTT10=
EXTT11=
EXTT12=
PLAYORDER=
